PathFileType	4	(X/Y/Z)	E:\Qualisys_Data\Carbon_Farble_Plate\Data\Amateur_Runner\S1\T3\S1T3V23_c3d.trc
DataRate	CameraRate	NumFrames	NumMarkers	Units	OrigDataRate	OrigDataStartFrame	OrigNumFrames
200.000000	200.000000	4	39	mm	200.000000	259	296
Frame#	Time	LSHO			RSHO			LICST			RICST			LASIS			LHEEL			RASIS			LTROC			RTROC			SACR			LTH1			LSK4			LTH2			LTH3			RHM5			LSK2			LTH4			RTH1			LTOE			RTH2			RTH3			RTH4			LLEP			RLEP			LSK1			LSK3			RSK1			LHM5			RSK2			LFT1			RSK3			RSK4			LLME			RLME			RTOE			RHEEL			RFT1			RFT2			LFT2			
		X1	Y1	Z1	X2	Y2	Z2	X3	Y3	Z3	X4	Y4	Z4	X5	Y5	Z5	X6	Y6	Z6	X7	Y7	Z7	X8	Y8	Z8	X9	Y9	Z9	X10	Y10	Z10	X11	Y11	Z11	X12	Y12	Z12	X13	Y13	Z13	X14	Y14	Z14	X15	Y15	Z15	X16	Y16	Z16	X17	Y17	Z17	X18	Y18	Z18	X19	Y19	Z19	X20	Y20	Z20	X21	Y21	Z21	X22	Y22	Z22	X23	Y23	Z23	X24	Y24	Z24	X25	Y25	Z25	X26	Y26	Z26	X27	Y27	Z27	X28	Y28	Z28	X29	Y29	Z29	X30	Y30	Z30	X31	Y31	Z31	X32	Y32	Z32	X33	Y33	Z33	X34	Y34	Z34	X35	Y35	Z35	X36	Y36	Z36	X37	Y37	Z37	X38	Y38	Z38	X39	Y39	Z39	

260	1.295	2356.80419921875	1522.462158203125	-565.4137573242188	2278.94189453125	1520.688842773438	-249.1562042236328	2328.982666015625	1040.514282226562	-540.2858276367188	2321.885986328125	1079.061157226562	-244.1535949707031	2374.57470703125	1002.060913085938	-514.5881958007812	1810.062377929688	255.5830993652344	-403.7168273925781	2362.032958984375	1033.2265625	-251.2196044921875	2241.76220703125	930.5903930664062	-551.3803100585938	2276.042724609375	939.4801025390624	-210.3369750976562	2207.07763671875	1073.936401367188	-390.4532775878906	2319.804443359375	752.1828002929688	-519.3283081054688	1915.196411132812	355.9992980957031	-439.8546447753906	2238.857666015625	771.3922729492188	-544.7591552734375	2279.287353515625	656.7632446289062	-491.1925964355469	2561.55712890625	161.3031616210938	-225.6221923828125	1981.515747070312	423.8665466308594	-482.5310668945312	2201.4482421875	682.534423828125	-516.6595458984375	2453.297119140625	896.1160278320312	-245.7965850830078	1953.77490234375	49.80122756958008	-408.0719604492188	2398.0849609375	845.992431640625	-214.1778106689453	2518.820068359375	818.8036499023438	-249.74169921875	2458.92529296875	768.2693481445312	-229.2122344970703	2171.2568359375	535.0831298828125	-471.8643798828125	2565.13427734375	641.2778930664062	-260.13427734375	2041.95703125	364.9504699707031	-471.4916381835938	1965.779418945312	297.5943603515625	-464.2975158691406	2526.757568359375	453.1595764160156	-238.5722808837891	1888.894775390625	89.67235565185547	-462.8186950683594	2448.7705078125	474.1736755371094	-252.4522705078125	1795.504516601562	232.832275390625	-371.8973999023438	2503.16357421875	355.6854858398438	-250.489501953125	2427.892333984375	377.4202880859375	-273.2465515136719	1864.343017578125	233.0597534179688	-453.4551391601562	2438.282958984375	236.4454193115234	-250.0553894042969	2620.864990234375	166.3849182128906	-293.7142028808594	2371.6611328125	200.0791473388672	-298.0371398925781	2380.498779296875	170.3350982666016	-326.7358093261719	2369.35546875	174.4422149658203	-276.3468017578125	1784.716186523438	230.8931121826172	-422.0538940429688
261	1.3	2378.172607421875	1525.802368164062	-564.3582153320312	2298.692626953125	1523.002197265625	-249.2127227783203	2351.009765625	1042.82568359375	-540.5248413085938	2343.729736328125	1081.264770507812	-244.3957061767578	2396.572265625	1004.087951660156	-514.5565185546875	1830.056762695312	268.4179992675781	-406.7685852050781	2383.589599609375	1035.212890625	-251.5481872558594	2266.225341796875	934.4818115234376	-552.528076171875	2297.144287109375	941.623046875	-211.1004638671875	2228.971923828125	1076.674926757812	-390.6422424316406	2338.428955078125	755.3522338867188	-519.9495239257812	1929.2958984375	362.7732238769531	-441.2393798828125	2257.3515625	775.3764038085938	-545.8436889648438	2293.150390625	658.5914916992188	-491.1521606445312	2602.5390625	160.5774841308594	-227.5498657226562	1996.404174804688	430.4180908203125	-483.9324645996094	2219.098876953125	686.5872802734375	-517.3679809570312	2474.31640625	897.2863159179688	-245.5594329833984	1958.732177734375	51.28596878051758	-407.5410461425781	2418.049560546875	847.2431030273438	-215.8155975341797	2539.7197265625	819.1428833007812	-250.3111877441406	2478.6064453125	769.4163818359375	-230.6767272949219	2187.141357421875	539.5590209960938	-473.1690063476562	2583.897216796875	641.1460571289062	-260.9912109375	2055.77294921875	370.5298156738281	-473.5442199707031	1979.2763671875	304.1899108886719	-465.7704162597656	2552.63916015625	450.64306640625	-238.6282958984375	1897.213500976562	94.7221450805664	-462.794921875	2474.3017578125	468.193359375	-252.7295989990234	1813.719604492188	247.2674713134766	-373.7919616699219	2534.7431640625	352.0719909667969	-251.0914306640625	2458.103759765625	370.7494812011719	-273.4190368652344	1877.756713867188	240.7832489013672	-455.5059509277344	2475.361328125	229.0476989746094	-251.5107269287109	2661.0986328125	168.6150054931641	-295.1343688964844	2409.87646484375	189.8134613037109	-299.7000732421875	2420.930419921875	160.822998046875	-328.1195068359375	2409.334228515625	164.1923065185547	-277.5013122558594	1802.529052734375	244.9033508300781	-424.0925598144531
262	1.305	2398.900390625	1529.498657226562	-562.8192749023438	2317.97216796875	1525.11181640625	-249.3218536376953	2373.111328125	1044.959106445312	-540.5081176757812	2365.335205078125	1083.096557617188	-244.83349609375	2418.42236328125	1006.389587402344	-514.9255981445312	1847.43798828125	279.8747253417969	-409.1575927734375	2405.16845703125	1036.980102539062	-252.1429443359375	2286.558349609375	937.3455810546876	-553.3681030273438	2318.172119140625	943.4091796875	-211.4489288330078	2250.915771484375	1079.698608398438	-391.50537109375	2356.98095703125	758.097412109375	-520.3905029296875	1944.015625	370.1806640625	-442.6387023925781	2277.197998046875	779.0086669921875	-546.5515747070312	2315.00390625	663.157958984375	-495.2578430175781	2642.22412109375	159.5685729980469	-229.5716400146484	2011.843383789062	436.5882568359375	-484.6153869628906	2237.54052734375	690.5863647460938	-519.0673828125	2495.343994140625	898.0153198242188	-245.5142059326172	1964.964965820312	56.80388641357422	-405.6602478027344	2438.100341796875	848.3111572265625	-217.0561370849609	2559.85302734375	819.2979125976562	-250.6133880615234	2497.8623046875	769.383056640625	-233.1670989990234	2203.59326171875	543.5237426757812	-475.2359924316406	2601.487060546875	640.6567993164062	-260.63916015625	2070.87353515625	376.0848083496094	-474.6863708496094	1993.449951171875	311.5550231933594	-468.0093994140625	2578.6220703125	448.3475036621094	-238.466064453125	1905.84033203125	101.158332824707	-462.5269775390625	2499.484619140625	461.8554992675781	-253.6492156982422	1830.600341796875	260.7501525878906	-375.6351318359375	2565.2119140625	348.7047424316406	-251.337646484375	2488.170654296875	363.9509887695312	-273.9563293457031	1891.910766601562	248.3531036376953	-456.711669921875	2510.7314453125	222.8977355957031	-251.6603088378906	2700.890380859375	170.8545989990234	-297.3617858886719	2448.362548828125	180.3929443359375	-300.3145446777344	2464.46484375	153.4761047363281	-329.0948791503906	2449.1611328125	154.5945739746094	-278.0598754882812	1820.043334960938	258.1071166992188	-426.5796813964844
263	1.31	2419.905517578125	1532.636474609375	-561.8055419921875	2337.334716796875	1526.74267578125	-249.3889770507812	2395.366943359375	1047.381713867188	-541.0100708007812	2387.15087890625	1084.603881835938	-245.4421997070312	2439.85986328125	1007.9453125	-515.0708618164062	1862.52294921875	290.2593994140625	-411.3682250976562	2426.4013671875	1038.2158203125	-252.4071502685547	2308.334716796875	939.9495849609376	-554.2962646484375	2339.130859375	944.5878295898438	-211.8803558349609	2272.613525390625	1082.16650390625	-392.1337890625	2375.64892578125	760.5464477539062	-520.7152099609375	1959.18115234375	377.4315795898438	-444.0857238769531	2296.895751953125	782.5022583007812	-547.0565795898438	2335.068603515625	665.2788696289062	-498.3561096191406	2681.3212890625	159.3299713134766	-230.6479949951172	2027.692138671875	443.0924987792969	-486.0219116210938	2256.53515625	693.8789672851562	-518.5542602539062	2516.058837890625	897.9083862304688	-245.2262268066406	1973.364868164062	64.60299682617188	-403.5194091796875	2458.439208984375	848.5923461914062	-218.1229400634766	2579.5390625	818.529541015625	-250.4094085693359	2516.915771484375	769.60791015625	-234.5170288085938	2221.131591796875	546.9617919921875	-476.8500061035156	2619.935791015625	639.0335693359375	-261.2338256835938	2086.0439453125	381.2541198730469	-476.0299682617188	2007.678466796875	317.8385925292969	-470.3110656738281	2603.7470703125	445.2085266113281	-238.4745941162109	1915.21923828125	109.0015182495117	-461.7935485839844	2524.542236328125	455.5935363769531	-254.5626831054688	1844.844482421875	272.2061157226562	-377.77490234375	2594.979736328125	345.4472351074219	-251.8520355224609	2516.4404296875	356.8303527832031	-274.000732421875	1905.357299804688	257.0085144042969	-458.0451965332031	2548.64306640625	215.8152008056641	-253.5836944580078	2739.109130859375	173.6201629638672	-299.1087036132812	2486.9501953125	171.1410827636719	-301.1549682617188	2503.90673828125	145.3412017822266	-330.4529724121094	2488.667724609375	145.3123474121094	-279.7284851074219	1835.7041015625	269.3361206054688	-428.5281372070312
